<?xml version="1.0" encoding="UTF-8"?><svg id="Layer_1" xmlns="http://www.w3.org/2000/svg" viewBox="0 0 256 253"><defs><style>.cls-1{fill:none;stroke:#000;stroke-miterlimit:10;stroke-width:38px;}.cls-2{stroke-width:0px;}</style></defs><rect class="cls-2" x="12.5" y="104.29" width="231.03" height="142.21" rx="27.46" ry="27.46"/><path class="cls-2" d="m216.07,104.79c14.87,0,26.96,12.1,26.96,26.96v87.28c0,14.87-12.1,26.96-26.96,26.96H39.96c-14.87,0-26.96-12.1-26.96-26.96v-87.28c0-14.87,12.1-26.96,26.96-26.96h176.11m0-1H39.96c-15.44,0-27.96,12.52-27.96,27.96v87.28c0,15.44,12.52,27.96,27.96,27.96h176.11c15.44,0,27.96-12.52,27.96-27.96v-87.28c0-15.44-12.52-27.96-27.96-27.96h0Z"/><path class="cls-1" d="m40.44,158.17S11.43,34.71,132.07,34c114.21-.67,83.1,124.17,83.1,124.17H40.44Z"/></svg>